PathFileType	4	(X/Y/Z)	./resultDataOpenSim/trcMotMarkerGrf/sub06/qtm-12-07.trc
DataRate	CameraRate	NumFrames	NumMarkers	Units	OrigDataRate	OrigDataStartFrame	OrigNumFrames
250.000000	250.000000	14	24	m	250.000000	126	502
Frame#	Time	L.Toe.Tip			R.Toe.Tip			L.Ankle.Lat			R.Ankle.Lat			L.Ankle.Med			R.Ankle.Med			L.Heel			R.Heel			L.Knee.Lat			R.Knee.Lat			L.Knee.Med			R.Knee.Med			L.Thigh.Upper			R.Thigh.Upper			L.ASIS			R.ASIS			V.Sacral			L.Acromium			R.Acromium			C7			L.Elbow			R.Elbow			L.Wrist.Lat			R.Wrist.Lat
		X1	Y1	Z1	X2	Y2	Z2	X3	Y3	Z3	X4	Y4	Z4	X5	Y5	Z5	X6	Y6	Z6	X7	Y7	Z7	X8	Y8	Z8	X9	Y9	Z9	X10	Y10	Z10	X11	Y11	Z11	X12	Y12	Z12	X13	Y13	Z13	X14	Y14	Z14	X15	Y15	Z15	X16	Y16	Z16	X17	Y17	Z17	X18	Y18	Z18	X19	Y19	Z19	X20	Y20	Z20	X21	Y21	Z21	X22	Y22	Z22	X23	Y23	Z23	X24	Y24	Z24

126	0.5	-0.16204016	0.11196227	-0.081704579	-0.81032005	0.034827933	0.078621478	-0.28921327	0.096768618	-0.10586143	-0.94283061	0.070226956	0.093082819	-0.29490315	0.11129766	-0.021352885	-0.91570517	0.085276891	0.0070268375	-0.34181023	0.038124288	-0.059389624	-0.99697087	0.052522563	0.028349166	-0.40865478	0.4449992	-0.1057699	-0.7674558	0.41925605	0.12972325	-0.42830386	0.43303567	0.018314215	-0.79364677	0.42192455	-0.0017868979	-0.60166555	0.78408784	-0.15523866	-0.67615551	0.77086608	0.19350583	-0.54270172	0.8250361	-0.099248326	-0.56177463	0.81758049	0.14980862	-0.73798234	0.90437993	0.021592759	-0.61653493	1.3070121	-0.16893873	-0.59655966	1.3000215	0.19161719	-0.68209262	1.3420275	0.014034142	-0.73582507	1.0122068	-0.21606888	-0.61860014	0.99395917	0.31090942	-0.62500498	0.79655456	-0.26064865	-0.38832681	0.89706144	0.29048089
127	0.504	-0.14919357	0.11457076	-0.080216207	-0.81027284	0.034815905	0.07861308	-0.27620002	0.097713563	-0.10524142	-0.9421676	0.071154614	0.093043166	-0.28264183	0.1118838	-0.020792344	-0.91495771	0.085846529	0.0069690013	-0.3281304	0.038212463	-0.059236429	-0.99662143	0.053841015	0.028229663	-0.4008884	0.44384099	-0.10512315	-0.76324863	0.41833105	0.12962302	-0.42157452	0.43107576	0.019095197	-0.78879586	0.42112782	-0.0020294359	-0.59427798	0.78188889	-0.15534723	-0.66684337	0.7679553	0.19360627	-0.53536478	0.82269216	-0.099270122	-0.55532627	0.81568037	0.14991903	-0.7309173	0.90235842	0.020847138	-0.61011159	1.304959	-0.16920853	-0.58999746	1.2980911	0.19135694	-0.67567179	1.3400205	0.013836845	-0.72964632	1.0103957	-0.2158807	-0.61041295	0.99196441	0.31095231	-0.6202854	0.79423313	-0.26116439	-0.37956978	0.89694749	0.28962959
128	0.508	-0.13693029	0.11671307	-0.078792656	-0.81025111	0.034806519	0.078612143	-0.26376003	0.09845966	-0.10455683	-0.94130889	0.072178454	0.093086621	-0.27082718	0.11237792	-0.020159853	-0.9142119	0.086482073	0.0069439406	-0.31515554	0.038200374	-0.058965969	-0.99625574	0.055286975	0.028209023	-0.39298471	0.44277771	-0.10450619	-0.75891133	0.41738455	0.12952018	-0.41476311	0.42923369	0.019795014	-0.7838066	0.42028479	-0.0022589087	-0.58687672	0.77970477	-0.15544619	-0.65799467	0.76527204	0.19339092	-0.52802468	0.82038673	-0.099283085	-0.54889341	0.81378427	0.15001726	-0.7238613	0.90036361	0.020114959	-0.60350351	1.3029073	-0.16945678	-0.5834148	1.2961673	0.19108198	-0.66914842	1.3379876	0.013624921	-0.72339857	1.0085705	-0.21565735	-0.60225643	0.98999222	0.31093128	-0.61565647	0.7918797	-0.2617396	-0.3709433	0.89677074	0.28882339
129	0.512	-0.12525316	0.11836728	-0.077461602	-0.81024824	0.034790845	0.0786189	-0.25190622	0.098959248	-0.10381667	-0.94035342	0.073278901	0.09319478	-0.25949645	0.11273581	-0.019496121	-0.91344665	0.087191464	0.006960457	-0.30292536	0.038058645	-0.05855557	-0.99587361	0.056869129	0.028291999	-0.38495815	0.44178077	-0.1039193	-0.75439312	0.41642649	0.12942332	-0.40780148	0.42753735	0.020427	-0.77867981	0.41939486	-0.0024744508	-0.57942267	0.77754944	-0.15553309	-0.65033957	0.76320615	0.19299048	-0.52065013	0.81812258	-0.099295276	-0.5423952	0.81191648	0.15011183	-0.71677833	0.89840464	0.019418193	-0.59684786	1.3008745	-0.16972495	-0.57680301	1.294247	0.19078503	-0.66255432	1.3360068	0.013375535	-0.71708736	1.0067305	-0.21542561	-0.59412053	0.98803758	0.31084773	-0.61110512	0.78950307	-0.26236814	-0.36238935	0.89651402	0.28801529
130	0.516	-0.11417217	0.11954561	-0.076235704	-0.81024827	0.034752172	0.078633878	-0.24063747	0.099184942	-0.10302355	-0.93951959	0.07441266	0.09334338	-0.24867839	0.1129155	-0.018811763	-0.91263428	0.087982452	0.0070321074	-0.29138572	0.037763898	-0.057974487	-0.99547296	0.058590733	0.028466812	-0.37687771	0.44081221	-0.1033734	-0.749685	0.41546591	0.12934267	-0.40064693	0.4260083	0.020990628	-0.77342558	0.4184637	-0.002667448	-0.57189456	0.77544118	-0.1556118	-0.64366132	0.76171802	0.19258074	-0.51320189	0.81590586	-0.099304368	-0.53580097	0.81010038	0.15019336	-0.70967514	0.8964616	0.018661862	-0.5902544	1.298869	-0.1700542	-0.57016375	1.2923397	0.19046904	-0.65591261	1.3341303	0.013073188	-0.71070485	1.0048811	-0.21520985	-0.58600426	0.9861012	0.31070413	-0.60662039	0.78709167	-0.26303016	-0.35380177	0.89616975	0.28712578
131	0.52	-0.10369476	0.12026859	-0.075109215	-0.81024468	0.034677879	0.078657506	-0.22996276	0.099120063	-0.10218816	-0.93892208	0.075564026	0.093525528	-0.23839064	0.1128736	-0.018103409	-0.911769	0.088860245	0.0071716347	-0.28049489	0.03728654	-0.057249055	-0.9950426	0.060452752	0.028718114	-0.3688036	0.43983286	-0.10287349	-0.74481579	0.41449963	0.1292803	-0.39328837	0.42464457	0.021479013	-0.7680541	0.41749082	-0.0028257539	-0.5642946	0.77338582	-0.15567889	-0.63738303	0.76051457	0.19223044	-0.50566315	0.81374419	-0.099307288	-0.52914266	0.80834032	0.15025392	-0.70255294	0.89455993	0.017882635	-0.58367929	1.2968874	-0.17044035	-0.5635094	1.2904576	0.19014353	-0.64927322	1.3323771	0.012706698	-0.70424009	1.0030386	-0.2150192	-0.57792359	0.98419317	0.31049786	-0.60220073	0.78464436	-0.26371898	-0.34516029	0.8957496	0.28612163
132	0.524	-0.093821735	0.12054181	-0.074062261	-0.81022666	0.034581004	0.078687554	-0.21990365	0.098743935	-0.10133176	-0.93843306	0.076773543	0.093756467	-0.22864698	0.11256009	-0.01736441	-0.91088093	0.089827131	0.0073919125	-0.27026693	0.036599014	-0.056460586	-0.99456374	0.062457122	0.029047965	-0.36068065	0.43881655	-0.10240671	-0.73981715	0.41351391	0.12923861	-0.38572567	0.42342139	0.021900387	-0.76256499	0.4164688	-0.0029411341	-0.55663352	0.77137408	-0.15572492	-0.6311294	0.75935971	0.19192371	-0.49804122	0.81164339	-0.099301696	-0.5224421	0.80662281	0.15029485	-0.69538928	0.89274118	0.017222231	-0.57704377	1.2949275	-0.17085846	-0.55685551	1.2886071	0.18981142	-0.64268201	1.3307212	0.012274085	-0.69769088	1.0012182	-0.21484947	-0.5698989	0.98232112	0.31023101	-0.59778277	0.78219084	-0.26441876	-0.33657331	0.89527132	0.2850522
133	0.528	-0.084554608	0.12035205	-0.073070805	-0.81016614	0.034497499	0.078723056	-0.2104784	0.098034452	-0.10047047	-0.93777369	0.078118096	0.094059395	-0.21945322	0.11193235	-0.016586634	-0.91000294	0.090883953	0.0077032846	-0.26073696	0.035679792	-0.055679618	-0.99401958	0.064603941	0.029467024	-0.35236347	0.43775463	-0.1019519	-0.73470275	0.41249914	0.12922557	-0.37795764	0.42230355	0.022275033	-0.75695072	0.4153939	-0.0030122309	-0.54891307	0.76940147	-0.15575297	-0.62479163	0.75816568	0.19163121	-0.49035619	0.80960876	-0.099278681	-0.51568489	0.80493682	0.15031757	-0.6881547	0.89097216	0.016717433	-0.57033795	1.2929968	-0.1712986	-0.55020496	1.2867899	0.18947335	-0.63611865	1.3290946	0.011798483	-0.6910596	0.99942263	-0.21469604	-0.56194467	0.98048828	0.30991393	-0.59323779	0.77977559	-0.26509266	-0.32814662	0.89474521	0.28400175
134	0.532	-0.075898687	0.11967957	-0.072114712	-0.81004545	0.034451801	0.078771127	-0.20169619	0.09697983	-0.099604541	-0.9367434	0.07965706	0.09444976	-0.21080968	0.11096741	-0.015767356	-0.90911301	0.09203466	0.0080963816	-0.25192764	0.034510653	-0.05491028	-0.99340206	0.066890274	0.02997053	-0.34385098	0.43663246	-0.10151254	-0.72946947	0.41145647	0.12924405	-0.36998745	0.42126032	0.022616765	-0.75120714	0.4142719	-0.00304306	-0.54113425	0.76748057	-0.15578696	-0.61839119	0.75693308	0.19133727	-0.48261904	0.80764825	-0.099230498	-0.50885123	0.80329123	0.15033251	-0.68084236	0.88913661	0.01627637	-0.56358725	1.291107	-0.17176195	-0.54354051	1.2850071	0.18912857	-0.62951713	1.3274469	0.011312331	-0.68434612	0.99764365	-0.21456047	-0.55407199	0.97869473	0.30954924	-0.58850092	0.77742187	-0.26572025	-0.31989646	0.89417136	0.28302076
135	0.536	-0.067856401	0.11850744	-0.071182435	-0.80987538	0.034441155	0.078841848	-0.19355614	0.095583877	-0.098724888	-0.93538118	0.081373241	0.094924633	-0.20272206	0.10965982	-0.014913924	-0.90814262	0.093288617	0.0085388646	-0.24385337	0.03308771	-0.054119437	-0.99271055	0.069313016	0.030546063	-0.33536135	0.43542851	-0.10111929	-0.72410527	0.41039312	0.12929136	-0.3618316	0.42027722	0.02292456	-0.745334	0.41311785	-0.0030413061	-0.53330732	0.76563407	-0.15585649	-0.61196904	0.7556843	0.19103874	-0.47482569	0.80577049	-0.099159606	-0.5019446	0.80169891	0.1503567	-0.67348813	0.88714923	0.015818073	-0.55680126	1.2892616	-0.17224717	-0.53684209	1.2832595	0.18876636	-0.62283039	1.3257785	0.010828337	-0.67754993	0.99587466	-0.21443887	-0.54628376	0.97693604	0.30912929	-0.58363097	0.77512264	-0.26631945	-0.31178701	0.89354493	0.28210324
136	0.54	-0.060422327	0.11682305	-0.070273298	-0.80967469	0.034452315	0.07893642	-0.1860435	0.093861378	-0.097827111	-0.93389476	0.083181057	0.095465019	-0.19519838	0.10801827	-0.014035444	-0.90704495	0.094656221	0.0090079287	-0.23652674	0.031428464	-0.053292848	-0.99194486	0.071867075	0.031197892	-0.32705574	0.43415726	-0.10078668	-0.718599	0.40932318	0.12936661	-0.35351878	0.41935812	0.023188971	-0.7393289	0.41194655	-0.003011503	-0.52543917	0.76388204	-0.15597517	-0.60554566	0.75443389	0.19073737	-0.46696978	0.80398157	-0.099070293	-0.49498734	0.80015079	0.15039502	-0.66615062	0.88510558	0.015340801	-0.54996447	1.287451	-0.17275257	-0.53010463	1.2815503	0.18837019	-0.61605451	1.3241156	0.010337187	-0.67067197	0.99411602	-0.21430878	-0.53856267	0.97520825	0.30864612	-0.57871731	0.77286161	-0.26691783	-0.30377636	0.8928619	0.28120651
137	0.544	-0.053582777	0.11461817	-0.069393026	-0.80944818	0.034475554	0.079045402	-0.17913218	0.091829841	-0.09691856	-0.93243894	0.085011229	0.096049271	-0.18823798	0.1060618	-0.013138517	-0.90581624	0.09614511	0.0095120555	-0.22993291	0.029552738	-0.052429285	-0.9910927	0.074548578	0.031941533	-0.31886998	0.43287496	-0.10049774	-0.71295107	0.40826418	0.12946861	-0.3450802	0.41851566	0.023401311	-0.73318638	0.41076052	-0.0029488263	-0.51751922	0.76223416	-0.15613484	-0.59912401	0.75318595	0.19043512	-0.45905011	0.80228362	-0.098963448	-0.48799383	0.79862472	0.15043966	-0.6588363	0.88324858	0.014822438	-0.54305662	1.2856655	-0.17328102	-0.52332808	1.2798841	0.18792959	-0.60921088	1.3224799	0.0098259137	-0.66371295	0.99236876	-0.21414218	-0.53086761	0.97351	0.30808181	-0.57376858	0.77063343	-0.26751373	-0.29583429	0.89211913	0.28028239
138	0.548	-0.047315936	0.11189281	-0.068542781	-0.80918651	0.03450415	0.079157699	-0.17279577	0.089505614	-0.096011594	-0.93101568	0.086861	0.096658722	-0.18183618	0.10381662	-0.01223022	-0.90446732	0.097758171	0.010068966	-0.22402547	0.027473076	-0.05152368	-0.99012259	0.077374494	0.032772699	-0.31066839	0.4316324	-0.10023448	-0.7071734	0.40722449	0.12959573	-0.33654303	0.41775802	0.023555731	-0.72690099	0.40955245	-0.0028476722	-0.50952777	0.76069246	-0.15631628	-0.5927057	0.75194067	0.1901331	-0.45106808	0.80067562	-0.098843027	-0.48096115	0.79711374	0.15048299	-0.65145568	0.88173421	0.014189011	-0.53607598	1.2839095	-0.173837	-0.5165064	1.2782642	0.18744383	-0.6023228	1.3208772	0.009289328	-0.65667529	0.99063692	-0.21394082	-0.52314543	0.97183517	0.30739263	-0.56869263	0.76845063	-0.26807056	-0.28794831	0.89131426	0.27930494
139	0.552	-0.041595841	0.108664	-0.067715127	-0.80888158	0.034531618	0.07926868	-0.16701561	0.086905037	-0.095110955	-0.92956849	0.088763796	0.097273472	-0.176002	0.1013201	-0.011314614	-0.90300933	0.099489927	0.010680053	-0.2187627	0.02520752	-0.050578592	-0.98901443	0.080391127	0.033670981	-0.30239326	0.43045007	-0.09999579	-0.70127019	0.4062016	0.12975135	-0.32793078	0.41708309	0.023648847	-0.72046985	0.40831958	-0.0027150916	-0.50145461	0.75925787	-0.15650121	-0.58630586	0.75070012	0.18983223	-0.44302412	0.79915773	-0.09871559	-0.47388321	0.79563039	0.15052579	-0.64391673	0.88048982	0.013451747	-0.52903871	1.2821974	-0.17442279	-0.50964535	1.2766922	0.18691752	-0.59540415	1.3192991	0.0087269315	-0.64956606	0.98893915	-0.21374774	-0.51534973	0.9701695	0.30651115	-0.56339534	0.76633578	-0.26855912	-0.28011858	0.89044907	0.27827474
